<svg width="170" height="180" viewBox="0 0 170 180" fill="none" xmlns="http://www.w3.org/2000/svg">
<path d="M162 7.0883C162 5.94985 161.051 5.04101 159.914 5.09017L93.9136 7.94266C92.8437 7.9889 92 8.86981 92 9.94079V140.432C92 141.23 92.4742 141.951 93.2065 142.268L159.207 170.793C160.527 171.363 162 170.395 162 168.957V7.0883Z" fill="#939393"/>
<path d="M127.5 9C127.5 9 132.713 10.8736 139 10.8736C145.287 10.8736 155 9 155 9V168.877C155 168.877 145.223 168.28 139 168.877C132.672 169.485 127.5 174 127.5 174V9Z" fill="#EFEFEF"/>
<path d="M131 7.09022C131 5.95104 130.05 5.04194 128.912 5.09218L61.9118 8.04967C60.8426 8.09687 60 8.97745 60 10.0477V145.356C60 146.148 60.4676 146.866 61.1924 147.186L128.192 176.761C129.514 177.344 131 176.376 131 174.931V7.09022Z" fill="#D9D9D9"/>
<path d="M86.7115 137.183C82.5801 155.541 75.3334 172 49.1688 172C23.0041 172 14.1244 156.174 10.7322 137.183C7.34008 118.193 -1.16499 103 49.1688 103C99.5025 103 90.8428 118.826 86.7115 137.183Z" fill="#EFEFEF"/>
<path d="M82 113.261C82 118.826 67.4493 123 49.5 123C31.5507 123 17 119.522 17 113.261C17 109.803 31.5507 107 49.5 107C67.4493 107 82 109.803 82 113.261Z" fill="#939393"/>
<path d="M49.9854 24C60.5733 24.7714 69 37.9031 69 53.9902C69 70.1509 60.4959 83.3271 49.8398 83.9883C49.2563 83.2181 48.7239 82.4467 48.2402 81.6641C41.993 72.0977 46.4393 63.2222 52.1406 54.4258C52.2687 54.2246 52.3956 54.0256 52.5205 53.8291C57.9524 44.8104 58.9838 32.054 50.8027 24.6045C50.5374 24.3902 50.2644 24.1885 49.9854 24ZM47.3877 24.0596C47.9466 24.7704 48.4077 25.5186 48.7725 26.2861C51.9723 33.9687 48.6928 42.6879 44.959 48.9561C44.8243 49.1624 44.6864 49.3751 44.5479 49.5928C41.4569 54.4519 38.6012 60.2664 38.3711 66.876C37.9917 73.5236 41.6259 80.0475 46.4854 83.3291C46.7657 83.5308 47.0498 83.7248 47.3369 83.9131C37.0692 82.6442 29 69.7327 29 53.9902C29 38.2217 37.0957 25.292 47.3877 24.0596Z" fill="#939393"/>
</svg>
